<svg xmlns="http://www.w3.org/2000/svg" width="24" height="24" viewBox="0 0 24 24" fill="none" stroke="currentColor" stroke-width="1.75" stroke-linecap="round" stroke-linejoin="round" aria-hidden="true"><path d="m2 7 1.5-5h17L22 7"/><path d="M2 7v3a2 2 0 0 0 2 2v0a2 2 0 0 0 2-2V7"/><path d="M6 10a2 2 0 0 0 2 2v0a2 2 0 0 0 2-2V7"/><path d="M10 10a2 2 0 0 0 2 2v0a2 2 0 0 0 2-2V7"/><path d="M14 10a2 2 0 0 0 2 2v0a2 2 0 0 0 2-2V7"/><path d="M18 10a2 2 0 0 0 2 2v0a2 2 0 0 0 2-2V7"/><path d="M4 12v9h16v-9"/></svg>
