<svg xmlns="http://www.w3.org/2000/svg" width="46" height="29" viewBox="0 0 46 29" fill="none" aria-label="Visa"><path fill-rule="evenodd" clip-rule="evenodd" d="M3.034.608h39.3c1.4 0 2.5 1.1 2.5 2.5v22.2c0 1.4-1.1 2.5-2.5 2.5h-39.3c-1.4 0-2.5-1.1-2.5-2.5v-22.2c0-1.4 1.1-2.5 2.5-2.5z" fill="#fff"/><path d="M42.234 28.208h-39.2c-1.6 0-2.9-1.3-2.9-2.9v-22.2c0-1.6 1.3-2.9 2.9-2.9h39.3c1.5 0 2.8 1.3 2.8 2.9v22.2c0 1.6-1.3 2.9-2.9 2.9zm-39.2-27.2c-1.1 0-2 .9-2 2.1v22.2c0 1.1.9 2.1 2 2.1h39.3c1.1 0 2-.9 2-2.1v-22.2c0-1.1-.9-2.1-2-2.1h-39.3z" fill="#e5e5e5"/><path d="M20.134 20.108h-3.1l1.9-11.8h3.1l-1.9 11.8zm-5.6-11.8l-2.9 8.1-.3-1.7-1-5.3s-.1-1.1-1.5-1.1h-4.9l-.1.2s1.5.3 3.2 1.3l2.7 10.2h3.2l4.9-11.8-3.3.1zm24.1 11.8h2.8l-2.5-11.8h-2.5c-1.1 0-1.4.9-1.4.9l-4.6 10.9h3.2l.6-1.7h3.9l.5 1.7zm-3.4-4.2l1.6-4.4.9 4.4h-2.5zm-4.5-4.7l.4-2.6s-1.3-.5-2.8-.5c-1.5 0-5.1.7-5.1 3.9 0 3 4.2 3.1 4.2 4.7s-3.8 1.3-5.1.3l-.5 2.6s1.4.7 3.5.7 5.2-1.1 5.2-4c0-3.1-4.3-3.3-4.3-4.7.2-1.3 3.2-1.2 4.5-.4z" fill="#06C"/><path d="M11.234 14.708l-1-5.3s-.1-1.1-1.5-1.1h-4.8l-.1.2s2.3.5 4.5 2.3c2.2 1.7 2.9 3.9 2.9 3.9z" fill="#E6A540"/></svg>
