<svg xmlns="http://www.w3.org/2000/svg" width="114" height="27" viewBox="0 0 114 27" fill="currentColor" aria-label="Apple Pay"><path d="M40.2908 16.3888H35.0614L33.9658 19.5268H31.5254L36.6053 6.02869H38.6971L43.777 19.5268H41.3367L40.2908 16.3888ZM35.7587 14.4961H39.6931L37.7508 8.91757L35.7587 14.4961Z"/><path d="M53.489 14.6455C53.489 16.1896 53.1404 17.4348 52.4432 18.3314C51.7459 19.2777 50.7996 19.726 49.6044 19.726C48.5087 19.726 47.6122 19.3773 46.9648 18.6302V23.4118H44.7236V9.51527H46.8154L46.915 10.5114C47.5624 9.71451 48.4589 9.31604 49.6044 9.31604C50.8494 9.31604 51.7957 9.76432 52.493 10.6609C53.1902 11.5574 53.5388 12.8524 53.5388 14.4463V14.6455H53.489ZM51.2479 14.4463C51.2479 13.4501 51.0487 12.6532 50.6502 12.0555C50.2518 11.4578 49.704 11.159 48.9569 11.159C48.0605 11.159 47.3632 11.5574 46.9648 12.3045V16.7375C47.3632 17.5344 48.0605 17.8831 48.9569 17.8831C49.6542 17.8831 50.2518 17.5842 50.6502 17.0363C51.0487 16.4885 51.2479 15.5919 51.2479 14.4463Z"/><path d="M64.1961 14.6455C64.1961 16.1896 63.8474 17.4348 63.1502 18.3314C62.4529 19.2777 61.5067 19.726 60.3114 19.726C59.2157 19.726 58.3193 19.3773 57.6718 18.6302V23.4118H55.4307V9.51527H57.5224L57.622 10.5114C58.2695 9.71451 59.1659 9.31604 60.3114 9.31604C61.5565 9.31604 62.5027 9.76432 63.2 10.6609C63.8972 11.5574 64.2459 12.8524 64.2459 14.4463V14.6455H64.1961ZM61.9549 14.4463C61.9549 13.4501 61.7557 12.6532 61.3573 12.0555C60.9588 11.4578 60.411 11.159 59.664 11.159C58.7675 11.159 58.0702 11.5574 57.6718 12.3045V16.7375C58.0702 17.5344 58.7675 17.8831 59.664 17.8831C60.3612 17.8831 60.9588 17.5842 61.3573 17.0363C61.7557 16.4885 61.9549 15.5919 61.9549 14.4463Z"/><path d="M78.0916 16.09C78.0916 15.4923 77.8924 15.044 77.4442 14.6954C77.0457 14.3965 76.2987 14.0479 75.203 13.6992C74.1073 13.3505 73.2607 13.0019 72.6132 12.6034C71.3681 11.8563 70.7705 10.8103 70.7705 9.5651C70.7705 8.46931 71.2187 7.57276 72.1152 6.87544C73.0117 6.17813 74.1571 5.82947 75.5516 5.82947C76.4979 5.82947 77.3445 5.97889 78.0418 6.32755C78.7888 6.67621 79.3367 7.1743 79.7849 7.8218C80.1833 8.46931 80.4324 9.16663 80.4324 9.96357H78.0916C78.0916 9.26625 77.8924 8.71836 77.4442 8.31989C76.9959 7.92142 76.3485 7.72219 75.5516 7.72219C74.8046 7.72219 74.2069 7.87161 73.7587 8.22027C73.3603 8.56893 73.1113 9.01721 73.1113 9.61491C73.1113 10.113 73.3603 10.5115 73.8085 10.8601C74.2567 11.2088 75.0038 11.5076 76.0497 11.8065C77.0955 12.1053 77.9422 12.454 78.5896 12.8525C79.2371 13.2509 79.6853 13.6992 79.9841 14.2471C80.283 14.795 80.4324 15.3429 80.4324 16.0402C80.4324 17.1858 79.9841 18.0823 79.1375 18.7298C78.2908 19.3774 77.0955 19.726 75.6512 19.726C74.6552 19.726 73.7587 19.5268 72.9618 19.1781C72.165 18.8295 71.5175 18.3314 71.0693 17.6839C70.6211 17.0364 70.3721 16.2892 70.3721 15.4425H72.7128C72.7128 16.1896 72.9618 16.7873 73.4599 17.2356C73.9579 17.6341 74.705 17.8831 75.6512 17.8831C76.4481 17.8831 77.0955 17.7337 77.494 17.385C77.8924 17.0364 78.0916 16.6379 78.0916 16.09Z"/><path d="M85.0644 7.07471V9.51532H86.8573V11.159H85.0644V16.7375C85.0644 17.136 85.164 17.3851 85.3134 17.5843C85.4628 17.7337 85.7118 17.8333 86.1102 17.8333C86.3592 17.8333 86.6083 17.7835 86.9071 17.7337V19.477C86.409 19.6264 85.911 19.6762 85.413 19.6762C83.6699 19.6762 82.8232 18.7299 82.8232 16.8372V11.2088H81.1797V9.56513H82.8232V7.12452H85.0644V7.07471Z"/><path d="M87.8535 14.4463C87.8535 13.4501 88.0527 12.6034 88.4512 11.8065C88.8496 11.0095 89.3974 10.4118 90.0947 10.0134C90.7919 9.61489 91.5888 9.36584 92.535 9.36584C93.8797 9.36584 94.9754 9.81412 95.8221 10.6609C96.6687 11.5076 97.117 12.703 97.1668 14.1475V14.6953C97.1668 15.6915 96.9675 16.5881 96.6189 17.3352C96.2703 18.0823 95.6727 18.7298 94.9754 19.1283C94.2782 19.5766 93.4315 19.7758 92.535 19.7758C91.1405 19.7758 89.9951 19.3275 89.1484 18.3812C88.3017 17.4348 87.8535 16.1896 87.8535 14.5957V14.4463ZM90.1445 14.6455C90.1445 15.6915 90.3437 16.4885 90.7919 17.0862C91.2402 17.6839 91.788 17.9827 92.5848 17.9827C93.3817 17.9827 93.9295 17.6839 94.3778 17.0862C94.826 16.4885 95.0252 15.6417 95.0252 14.4961C95.0252 13.4999 94.826 12.703 94.3778 12.1053C93.9295 11.5076 93.3319 11.2088 92.5848 11.2088C91.8378 11.2088 91.29 11.5076 90.8417 12.1053C90.3437 12.6034 90.1445 13.4501 90.1445 14.6455Z"/><path d="M104.338 11.5574C104.039 11.5076 103.74 11.5076 103.441 11.5076C102.395 11.5076 101.698 11.9061 101.35 12.703V19.5766H99.1084V9.51527H101.25L101.3 10.6609C101.848 9.81412 102.595 9.36584 103.541 9.36584C103.84 9.36584 104.139 9.41565 104.338 9.51527V11.5574Z"/><path d="M110.015 19.726C108.571 19.726 107.426 19.2777 106.529 18.3812C105.633 17.4846 105.185 16.2892 105.185 14.795V14.4961C105.185 13.4999 105.384 12.6034 105.782 11.8065C106.181 11.0095 106.728 10.4118 107.426 9.96355C108.123 9.51527 108.92 9.31604 109.766 9.31604C111.111 9.31604 112.207 9.76432 112.954 10.6111C113.701 11.4578 114.05 12.703 114.05 14.2969V15.1934H107.476C107.525 16.0402 107.824 16.6877 108.322 17.136C108.82 17.634 109.418 17.8831 110.165 17.8831C111.211 17.8831 112.057 17.4846 112.705 16.6379L113.9 17.7835C113.502 18.3812 112.954 18.8294 112.306 19.1781C111.609 19.5766 110.812 19.726 110.015 19.726ZM109.717 11.159C109.119 11.159 108.621 11.3582 108.223 11.8065C107.824 12.2547 107.625 12.8524 107.476 13.5996H111.759V13.4501C111.709 12.703 111.51 12.1053 111.161 11.7567C110.862 11.3582 110.364 11.159 109.717 11.159Z"/><path d="M22.3617 19.5767C21.764 20.9215 21.4652 21.5192 20.6683 22.7146C19.5727 24.4081 18.0288 26.4502 16.0864 26.5C14.3931 26.5 13.9449 25.4042 11.6539 25.4042C9.36296 25.4042 8.86493 26.5 7.17161 26.5C5.27908 26.5 3.78498 24.6073 2.6893 22.9138C-0.398506 18.2318 -0.697327 12.7529 1.1952 9.86402C2.53989 7.77206 4.68144 6.57666 6.67358 6.57666C8.71552 6.57666 9.9606 7.67245 11.6539 7.67245C13.2974 7.67245 14.2935 6.57666 16.6343 6.57666C18.4272 7.52302 20.2699 7.52302 21.6146 9.21651C17.1821 11.6073 17.9291 17.8832 22.3617 19.5767Z"/><path d="M14.7916 4.73372C15.6383 3.63793 16.2857 2.09387 16.0367 0.5C14.6422 0.599617 12.9987 1.49617 12.0524 2.64176C11.2058 3.68774 10.4587 5.2318 10.7575 6.77586C12.3014 6.82567 13.8951 5.87931 14.7916 4.73372Z"/></svg>
