<svg xmlns="http://www.w3.org/2000/svg" width="46" height="29" viewBox="0 0 46 29" fill="none" aria-label="Mastercard"><path fill-rule="evenodd" clip-rule="evenodd" d="M3.634.608h39.3c1.4 0 2.5 1.1 2.5 2.5v22.2c0 1.4-1.1 2.5-2.5 2.5h-39.3c-1.4 0-2.5-1.1-2.5-2.5v-22.2c0-1.4 1.1-2.5 2.5-2.5z" fill="#fff"/><path d="M42.833 28.208h-39.2c-1.6 0-2.9-1.3-2.9-2.9v-22.2c0-1.6 1.3-2.9 2.9-2.9h39.3c1.5 0 2.8 1.3 2.8 2.9v22.2c0 1.6-1.3 2.9-2.9 2.9zm-39.2-27.2c-1.1 0-2 .9-2 2.1v22.2c0 1.1.9 2.1 2 2.1h39.3c1.1 0 2-.9 2-2.1v-22.2c0-1.1-.9-2.1-2-2.1h-39.3z" fill="#e5e5e5"/><path d="M29.133 23.608a9.4 9.4 0 100-18.8 9.4 9.4 0 100 18.8z" fill="#F79F1A"/><path opacity="0.8" d="M17.334 23.608a9.4 9.4 0 100-18.8 9.4 9.4 0 100 18.8z" fill="#EA001B"/></svg>
