<svg xmlns="http://www.w3.org/2000/svg" width="46" height="29" viewBox="0 0 46 29" fill="none" aria-label="ATM card"><path d="M43.734.208h-40.7c-1.2 0-2.1 1-2.1 2.2v23.5c0 1.2.9 2.3 2.1 2.3h40.7c1.1 0 2.1-1 2.1-2.2v-23.6c.1-1.2-.9-2.2-2.1-2.2z" fill="#fff"/><path d="M16.134 24.808l-.6-1.6h-3.3l-.6 1.6h-3l3.8-9h3l3.9 9h-3.2zM26.834 18.108h-2.6v6.7h-3v-6.7h-2.6v-2.3h8.2v2.3zM35.434 24.808v-4.1l-1.9 3.3h-1.4l-2-3.2v3.9h-2.7v-9h2.5l2.9 4.8 2.8-4.8h2.5v9h-2.7v.1zM44.034 3.508h-41.2v7.7h41.2v-7.7z" fill="#008F5D"/></svg>
