<?xml version="1.0" encoding="UTF-8"?>
<svg id="g" width="375.515625" xmlns="http://www.w3.org/2000/svg" height="712" viewBox="-8 -8 375.515625 712" role="graphics-document document" aria-roledescription="flowchart-v2"><style>#g{font-family:Helvetica,Arial,sans-serif;font-size:16px;fill:#333;}#g .error-icon{fill:#552222;}#g .error-text{fill:#552222;stroke:#552222;}#g .edge-thickness-normal{stroke-width:2px;}#g .edge-thickness-thick{stroke-width:3.5px;}#g .edge-pattern-solid{stroke-dasharray:0;}#g .edge-pattern-dashed{stroke-dasharray:3;}#g .edge-pattern-dotted{stroke-dasharray:2;}#g .marker{fill:#333333;stroke:#333333;}#g .marker.cross{stroke:#333333;}#g svg{font-family:Helvetica,Arial,sans-serif;font-size:16px;}#g .label{font-family:Helvetica,Arial,sans-serif;color:#333;}#g .cluster-label text{fill:#333;}#g .cluster-label span,#g p{color:#333;}#g .label text,#g span,#g p{fill:#333;color:#333;}#g .node rect,#g .node circle,#g .node ellipse,#g .node polygon,#g .node path{fill:#ECECFF;stroke:#9370DB;stroke-width:1px;}#g .flowchart-label text{text-anchor:middle;}#g .node .katex path{fill:#000;stroke:#000;stroke-width:1px;}#g .node .label{text-align:center;}#g .node.clickable{cursor:pointer;}#g .arrowheadPath{fill:#333333;}#g .edgePath .path{stroke:#333333;stroke-width:2.0px;}#g .flowchart-link{stroke:#333333;fill:none;}#g .edgeLabel{background-color:#e8e8e8;text-align:center;}#g .edgeLabel rect{opacity:0.5;background-color:#e8e8e8;fill:#e8e8e8;}#g .labelBkg{background-color:rgba(232, 232, 232, 0.5);}#g .cluster rect{fill:#ffffde;stroke:#aaaa33;stroke-width:1px;}#g .cluster text{fill:#333;}#g .cluster span,#g p{color:#333;}#g div.mermaidTooltip{position:absolute;text-align:center;max-width:200px;padding:2px;font-family:Helvetica,Arial,sans-serif;font-size:12px;background:hsl(80, 100%, 96.2745098039%);border:1px solid #aaaa33;border-radius:2px;pointer-events:none;z-index:100;}#g .flowchartTitleText{text-anchor:middle;font-size:18px;fill:#333;}#g :root{--mermaid-font-family:"trebuchet ms",verdana,arial,sans-serif;}</style><g><marker id="g_flowchart-pointEnd" class="marker flowchart" viewBox="0 0 10 10" refX="6" refY="5" markerUnits="userSpaceOnUse" markerWidth="12" markerHeight="12" orient="auto"><path d="M 0 0 L 10 5 L 0 10 z" class="arrowMarkerPath" style="stroke-width: 1; stroke-dasharray: 1, 0;"></path></marker><marker id="g_flowchart-pointStart" class="marker flowchart" viewBox="0 0 10 10" refX="4.5" refY="5" markerUnits="userSpaceOnUse" markerWidth="12" markerHeight="12" orient="auto"><path d="M 0 5 L 10 10 L 10 0 z" class="arrowMarkerPath" style="stroke-width: 1; stroke-dasharray: 1, 0;"></path></marker><marker id="g_flowchart-circleEnd" class="marker flowchart" viewBox="0 0 10 10" refX="11" refY="5" markerUnits="userSpaceOnUse" markerWidth="11" markerHeight="11" orient="auto"><circle cx="5" cy="5" r="5" class="arrowMarkerPath" style="stroke-width: 1; stroke-dasharray: 1, 0;"></circle></marker><marker id="g_flowchart-circleStart" class="marker flowchart" viewBox="0 0 10 10" refX="-1" refY="5" markerUnits="userSpaceOnUse" markerWidth="11" markerHeight="11" orient="auto"><circle cx="5" cy="5" r="5" class="arrowMarkerPath" style="stroke-width: 1; stroke-dasharray: 1, 0;"></circle></marker><marker id="g_flowchart-crossEnd" class="marker cross flowchart" viewBox="0 0 11 11" refX="12" refY="5.2" markerUnits="userSpaceOnUse" markerWidth="11" markerHeight="11" orient="auto"><path d="M 1,1 l 9,9 M 10,1 l -9,9" class="arrowMarkerPath" style="stroke-width: 2; stroke-dasharray: 1, 0;"></path></marker><marker id="g_flowchart-crossStart" class="marker cross flowchart" viewBox="0 0 11 11" refX="-1" refY="5.2" markerUnits="userSpaceOnUse" markerWidth="11" markerHeight="11" orient="auto"><path d="M 1,1 l 9,9 M 10,1 l -9,9" class="arrowMarkerPath" style="stroke-width: 2; stroke-dasharray: 1, 0;"></path></marker><g class="root"><g class="clusters"></g><g class="edgePaths"><path d="M157.478,49L151.01,53.167C144.543,57.333,131.607,65.667,125.14,73.117C118.672,80.567,118.672,87.133,118.672,90.417L118.672,93.7" id="L-P1-P2-0" class=" edge-thickness-normal edge-pattern-solid flowchart-link LS-P1 LE-P2" style="fill:none;" marker-end="url(#g_flowchart-pointEnd)"></path><path d="M118.672,132L118.672,136.167C118.672,140.333,118.672,148.667,118.672,156.117C118.672,163.567,118.672,170.133,118.672,173.417L118.672,176.7" id="L-P2-P3-0" class=" edge-thickness-normal edge-pattern-solid flowchart-link LS-P2 LE-P3" style="fill:none;" marker-end="url(#g_flowchart-pointEnd)"></path><path d="M118.672,215L118.672,219.167C118.672,223.333,118.672,231.667,118.672,239.117C118.672,246.567,118.672,253.133,118.672,256.417L118.672,259.7" id="L-P3-P4-0" class=" edge-thickness-normal edge-pattern-solid flowchart-link LS-P3 LE-P4" style="fill:none;" marker-end="url(#g_flowchart-pointEnd)"></path><path d="M118.672,314L118.672,319.667C118.672,325.333,118.672,336.667,118.672,347.117C118.672,357.567,118.672,367.133,118.672,371.917L118.672,376.7" id="L-P4-P5-0" class=" edge-thickness-normal edge-pattern-solid flowchart-link LS-P4 LE-P5" style="fill:none;" marker-end="url(#g_flowchart-pointEnd)"></path><path d="M118.672,431L118.672,435.167C118.672,439.333,118.672,447.667,118.672,455.117C118.672,462.567,118.672,469.133,118.672,472.417L118.672,475.7" id="L-P5-P6-0" class=" edge-thickness-normal edge-pattern-solid flowchart-link LS-P5 LE-P6" style="fill:none;" marker-end="url(#g_flowchart-pointEnd)"></path><path d="M118.672,530L118.672,534.167C118.672,538.333,118.672,546.667,118.672,554.117C118.672,561.567,118.672,568.133,118.672,571.417L118.672,574.7" id="L-P6-P7-0" class=" edge-thickness-normal edge-pattern-solid flowchart-link LS-P6 LE-P7" style="fill:none;" marker-end="url(#g_flowchart-pointEnd)"></path><path d="M118.672,613L118.672,617.167C118.672,621.333,118.672,629.667,125.609,637.58C132.546,645.494,146.421,652.988,153.358,656.734L160.295,660.481" id="L-P7-P8-0" class=" edge-thickness-normal edge-pattern-solid flowchart-link LS-P7 LE-P8" style="fill:none;" marker-end="url(#g_flowchart-pointEnd)"></path><path d="M226.057,663L233.771,658.833C241.486,654.667,256.915,646.333,264.629,635.25C272.344,624.167,272.344,610.333,272.344,596.5C272.344,582.667,272.344,568.833,272.344,553.667C272.344,538.5,272.344,522,272.344,505.5C272.344,489,272.344,472.5,272.344,456C272.344,439.5,272.344,423,272.344,405C272.344,387,272.344,367.5,272.344,348C272.344,328.5,272.344,309,272.344,291C272.344,273,272.344,256.5,272.344,241.333C272.344,226.167,272.344,212.333,272.344,198.5C272.344,184.667,272.344,170.833,272.344,157C272.344,143.167,272.344,129.333,272.344,115.5C272.344,101.667,272.344,87.833,266.619,77.228C260.894,66.623,249.443,59.247,243.718,55.559L237.993,51.87" id="L-P8-P1-0" class=" edge-thickness-normal edge-pattern-dotted flowchart-link LS-P8 LE-P1" style="fill:none;stroke-width:2px;stroke-dasharray:3;" marker-end="url(#g_flowchart-pointEnd)"></path></g><g class="edgeLabels"><g class="edgeLabel"><g class="label" transform="translate(0, 0)"><rect rx="0" ry="0" width="0" height="0"></rect><text style=""><tspan xml:space="preserve" dy="1em" x="0" class="row"></tspan></text></g></g><g class="edgeLabel"><g class="label" transform="translate(0, 0)"><rect rx="0" ry="0" width="0" height="0"></rect><text style=""><tspan xml:space="preserve" dy="1em" x="0" class="row"></tspan></text></g></g><g class="edgeLabel"><g class="label" transform="translate(0, 0)"><rect rx="0" ry="0" width="0" height="0"></rect><text style=""><tspan xml:space="preserve" dy="1em" x="0" class="row"></tspan></text></g></g><g class="edgeLabel"><g class="label" transform="translate(0, 0)"><rect rx="0" ry="0" width="0" height="0"></rect><text style=""><tspan xml:space="preserve" dy="1em" x="0" class="row"></tspan></text></g></g><g class="edgeLabel"><g class="label" transform="translate(0, 0)"><rect rx="0" ry="0" width="0" height="0"></rect><text style=""><tspan xml:space="preserve" dy="1em" x="0" class="row"></tspan></text></g></g><g class="edgeLabel"><g class="label" transform="translate(0, 0)"><rect rx="0" ry="0" width="0" height="0"></rect><text style=""><tspan xml:space="preserve" dy="1em" x="0" class="row"></tspan></text></g></g><g class="edgeLabel"><g class="label" transform="translate(0, 0)"><rect rx="0" ry="0" width="0" height="0"></rect><text style=""><tspan xml:space="preserve" dy="1em" x="0" class="row"></tspan></text></g></g><g class="edgeLabel" transform="translate(272.34375, 348)"><g class="label" transform="translate(-87.171875, -9)"><rect rx="0" ry="0" width="174.34375" height="18"></rect><text style=""><tspan xml:space="preserve" dy="1em" x="0" class="row">feeds the next campaign</tspan></text></g></g></g><g class="nodes"><g class="node default default flowchart-label" id="flowchart-P1-0" data-node="true" data-id="P1" transform="translate(195.5078125, 24.5)"><rect class="basic label-container" style="" rx="0" ry="0" x="-133.8046875" y="-24.5" width="267.609375" height="49"></rect><g class="label" style="" transform="translate(0, -17)"><rect></rect><text style=""><tspan xml:space="preserve" dy="1em" x="0" class="row">1 · Intake (approve)</tspan><tspan xml:space="preserve" dy="1em" x="0" class="row">goal, audience, channel, one metric</tspan></text></g></g><g class="node default default flowchart-label" id="flowchart-P2-1" data-node="true" data-id="P2" transform="translate(118.671875, 115.5)"><rect class="basic label-container" style="" rx="0" ry="0" x="-110.6875" y="-16.5" width="221.375" height="33"></rect><g class="label" style="" transform="translate(0, -9)"><rect></rect><text style=""><tspan xml:space="preserve" dy="1em" x="0" class="row">2 · Look up approved context</tspan></text></g></g><g class="node default default flowchart-label" id="flowchart-P3-3" data-node="true" data-id="P3" transform="translate(118.671875, 198.5)"><rect class="basic label-container" style="" rx="0" ry="0" x="-71.53125" y="-16.5" width="143.0625" height="33"></rect><g class="label" style="" transform="translate(0, -9)"><rect></rect><text style=""><tspan xml:space="preserve" dy="1em" x="0" class="row">3 · Brief (approve)</tspan></text></g></g><g class="node default default flowchart-label" id="flowchart-P4-5" data-node="true" data-id="P4" transform="translate(118.671875, 289.5)"><rect class="basic label-container" style="" rx="0" ry="0" x="-77.765625" y="-24.5" width="155.53125" height="49"></rect><g class="label" style="" transform="translate(0, -17)"><rect></rect><text style=""><tspan xml:space="preserve" dy="1em" x="0" class="row">4 · Create draft</tspan><tspan xml:space="preserve" dy="1em" x="0" class="row">claims tagged inline</tspan></text></g></g><g class="node default default flowchart-label" id="flowchart-P5-7" data-node="true" data-id="P5" transform="translate(118.671875, 406.5)"><rect class="basic label-container" style="" rx="0" ry="0" x="-91.9921875" y="-24.5" width="183.984375" height="49"></rect><g class="label" style="" transform="translate(0, -17)"><rect></rect><text style=""><tspan xml:space="preserve" dy="1em" x="0" class="row">5 · Review loop</tspan><tspan xml:space="preserve" dy="1em" x="0" class="row">quality + brand + claims</tspan></text></g></g><g class="node default default flowchart-label" id="flowchart-P6-9" data-node="true" data-id="P6" transform="translate(118.671875, 505.5)"><rect class="basic label-container" style="" rx="0" ry="0" x="-118.671875" y="-24.5" width="237.34375" height="49"></rect><g class="label" style="" transform="translate(0, -17)"><rect></rect><text style=""><tspan xml:space="preserve" dy="1em" x="0" class="row">6 · Publish-readiness (approve)</tspan><tspan xml:space="preserve" dy="1em" x="0" class="row">the safety boundary</tspan></text></g></g><g class="node default default flowchart-label" id="flowchart-P7-11" data-node="true" data-id="P7" transform="translate(118.671875, 596.5)"><rect class="basic label-container" style="" rx="0" ry="0" x="-64.421875" y="-16.5" width="128.84375" height="33"></rect><g class="label" style="" transform="translate(0, -9)"><rect></rect><text style=""><tspan xml:space="preserve" dy="1em" x="0" class="row">7 · Save &amp; learn</tspan></text></g></g><g class="node default default flowchart-label" id="flowchart-P8-13" data-node="true" data-id="P8" transform="translate(195.5078125, 679.5)"><rect class="basic label-container" style="" rx="0" ry="0" x="-81.7578125" y="-16.5" width="163.515625" height="33"></rect><g class="label" style="" transform="translate(0, -9)"><rect></rect><text style=""><tspan xml:space="preserve" dy="1em" x="0" class="row">8 · Measure &amp; iterate</tspan></text></g></g></g></g></g></svg>
