<?xml version="1.0" encoding="UTF-8"?>
<svg id="g" width="498.203125" xmlns="http://www.w3.org/2000/svg" height="645" viewBox="-8 -8 498.203125 645" role="graphics-document document" aria-roledescription="flowchart-v2"><style>#g{font-family:Helvetica,Arial,sans-serif;font-size:16px;fill:#333;}#g .error-icon{fill:#552222;}#g .error-text{fill:#552222;stroke:#552222;}#g .edge-thickness-normal{stroke-width:2px;}#g .edge-thickness-thick{stroke-width:3.5px;}#g .edge-pattern-solid{stroke-dasharray:0;}#g .edge-pattern-dashed{stroke-dasharray:3;}#g .edge-pattern-dotted{stroke-dasharray:2;}#g .marker{fill:#333333;stroke:#333333;}#g .marker.cross{stroke:#333333;}#g svg{font-family:Helvetica,Arial,sans-serif;font-size:16px;}#g .label{font-family:Helvetica,Arial,sans-serif;color:#333;}#g .cluster-label text{fill:#333;}#g .cluster-label span,#g p{color:#333;}#g .label text,#g span,#g p{fill:#333;color:#333;}#g .node rect,#g .node circle,#g .node ellipse,#g .node polygon,#g .node path{fill:#ECECFF;stroke:#9370DB;stroke-width:1px;}#g .flowchart-label text{text-anchor:middle;}#g .node .katex path{fill:#000;stroke:#000;stroke-width:1px;}#g .node .label{text-align:center;}#g .node.clickable{cursor:pointer;}#g .arrowheadPath{fill:#333333;}#g .edgePath .path{stroke:#333333;stroke-width:2.0px;}#g .flowchart-link{stroke:#333333;fill:none;}#g .edgeLabel{background-color:#e8e8e8;text-align:center;}#g .edgeLabel rect{opacity:0.5;background-color:#e8e8e8;fill:#e8e8e8;}#g .labelBkg{background-color:rgba(232, 232, 232, 0.5);}#g .cluster rect{fill:#ffffde;stroke:#aaaa33;stroke-width:1px;}#g .cluster text{fill:#333;}#g .cluster span,#g p{color:#333;}#g div.mermaidTooltip{position:absolute;text-align:center;max-width:200px;padding:2px;font-family:Helvetica,Arial,sans-serif;font-size:12px;background:hsl(80, 100%, 96.2745098039%);border:1px solid #aaaa33;border-radius:2px;pointer-events:none;z-index:100;}#g .flowchartTitleText{text-anchor:middle;font-size:18px;fill:#333;}#g :root{--mermaid-font-family:"trebuchet ms",verdana,arial,sans-serif;}</style><g><marker id="g_flowchart-pointEnd" class="marker flowchart" viewBox="0 0 10 10" refX="6" refY="5" markerUnits="userSpaceOnUse" markerWidth="12" markerHeight="12" orient="auto"><path d="M 0 0 L 10 5 L 0 10 z" class="arrowMarkerPath" style="stroke-width: 1; stroke-dasharray: 1, 0;"></path></marker><marker id="g_flowchart-pointStart" class="marker flowchart" viewBox="0 0 10 10" refX="4.5" refY="5" markerUnits="userSpaceOnUse" markerWidth="12" markerHeight="12" orient="auto"><path d="M 0 5 L 10 10 L 10 0 z" class="arrowMarkerPath" style="stroke-width: 1; stroke-dasharray: 1, 0;"></path></marker><marker id="g_flowchart-circleEnd" class="marker flowchart" viewBox="0 0 10 10" refX="11" refY="5" markerUnits="userSpaceOnUse" markerWidth="11" markerHeight="11" orient="auto"><circle cx="5" cy="5" r="5" class="arrowMarkerPath" style="stroke-width: 1; stroke-dasharray: 1, 0;"></circle></marker><marker id="g_flowchart-circleStart" class="marker flowchart" viewBox="0 0 10 10" refX="-1" refY="5" markerUnits="userSpaceOnUse" markerWidth="11" markerHeight="11" orient="auto"><circle cx="5" cy="5" r="5" class="arrowMarkerPath" style="stroke-width: 1; stroke-dasharray: 1, 0;"></circle></marker><marker id="g_flowchart-crossEnd" class="marker cross flowchart" viewBox="0 0 11 11" refX="12" refY="5.2" markerUnits="userSpaceOnUse" markerWidth="11" markerHeight="11" orient="auto"><path d="M 1,1 l 9,9 M 10,1 l -9,9" class="arrowMarkerPath" style="stroke-width: 2; stroke-dasharray: 1, 0;"></path></marker><marker id="g_flowchart-crossStart" class="marker cross flowchart" viewBox="0 0 11 11" refX="-1" refY="5.2" markerUnits="userSpaceOnUse" markerWidth="11" markerHeight="11" orient="auto"><path d="M 1,1 l 9,9 M 10,1 l -9,9" class="arrowMarkerPath" style="stroke-width: 2; stroke-dasharray: 1, 0;"></path></marker><g class="root"><g class="clusters"></g><g class="edgePaths"><path d="M252.16,49L252.16,53.167C252.16,57.333,252.16,65.667,252.16,73.117C252.16,80.567,252.16,87.133,252.16,90.417L252.16,93.7" id="L-Pre-Get-0" class=" edge-thickness-normal edge-pattern-solid flowchart-link LS-Pre LE-Get" style="fill:none;" marker-end="url(#g_flowchart-pointEnd)"></path><path d="M252.16,148L252.16,152.167C252.16,156.333,252.16,164.667,252.16,172.117C252.16,179.567,252.16,186.133,252.16,189.417L252.16,192.7" id="L-Get-Open-0" class=" edge-thickness-normal edge-pattern-solid flowchart-link LS-Get LE-Open" style="fill:none;" marker-end="url(#g_flowchart-pointEnd)"></path><path d="M252.16,231L252.16,235.167C252.16,239.333,252.16,247.667,252.16,255.117C252.16,262.567,252.16,269.133,252.16,272.417L252.16,275.7" id="L-Open-Build-0" class=" edge-thickness-normal edge-pattern-solid flowchart-link LS-Open LE-Build" style="fill:none;" marker-end="url(#g_flowchart-pointEnd)"></path><path d="M201.405,330L189.665,335.667C177.926,341.333,154.447,352.667,142.708,363.117C130.969,373.567,130.969,383.133,130.969,387.917L130.969,392.7" id="L-Build-Setup-0" class=" edge-thickness-normal edge-pattern-solid flowchart-link LS-Build LE-Setup" style="fill:none;" marker-end="url(#g_flowchart-pointEnd)"></path><path d="M130.969,447L130.969,451.167C130.969,455.333,130.969,463.667,130.969,471.117C130.969,478.567,130.969,485.133,130.969,488.417L130.969,491.7" id="L-Setup-Doctor-0" class=" edge-thickness-normal edge-pattern-solid flowchart-link LS-Setup LE-Doctor" style="fill:none;" marker-end="url(#g_flowchart-pointEnd)"></path><path d="M130.969,546L130.969,550.167C130.969,554.333,130.969,562.667,130.969,570.117C130.969,577.567,130.969,584.133,130.969,587.417L130.969,590.7" id="L-Doctor-Ready-0" class=" edge-thickness-normal edge-pattern-solid flowchart-link LS-Doctor LE-Ready" style="fill:none;" marker-end="url(#g_flowchart-pointEnd)"></path><path d="M302.916,330L314.655,335.667C326.394,341.333,349.873,352.667,361.612,364.45C373.352,376.233,373.352,388.467,373.352,394.583L373.352,400.7" id="L-Build-Secrets-0" class=" edge-thickness-normal edge-pattern-dotted flowchart-link LS-Build LE-Secrets" style="fill:none;stroke-width:2px;stroke-dasharray:3;" marker-end="url(#g_flowchart-pointEnd)"></path></g><g class="edgeLabels"><g class="edgeLabel"><g class="label" transform="translate(0, 0)"><rect rx="0" ry="0" width="0" height="0"></rect><text style=""><tspan xml:space="preserve" dy="1em" x="0" class="row"></tspan></text></g></g><g class="edgeLabel"><g class="label" transform="translate(0, 0)"><rect rx="0" ry="0" width="0" height="0"></rect><text style=""><tspan xml:space="preserve" dy="1em" x="0" class="row"></tspan></text></g></g><g class="edgeLabel"><g class="label" transform="translate(0, 0)"><rect rx="0" ry="0" width="0" height="0"></rect><text style=""><tspan xml:space="preserve" dy="1em" x="0" class="row"></tspan></text></g></g><g class="edgeLabel"><g class="label" transform="translate(0, 0)"><rect rx="0" ry="0" width="0" height="0"></rect><text style=""><tspan xml:space="preserve" dy="1em" x="0" class="row"></tspan></text></g></g><g class="edgeLabel"><g class="label" transform="translate(0, 0)"><rect rx="0" ry="0" width="0" height="0"></rect><text style=""><tspan xml:space="preserve" dy="1em" x="0" class="row"></tspan></text></g></g><g class="edgeLabel"><g class="label" transform="translate(0, 0)"><rect rx="0" ry="0" width="0" height="0"></rect><text style=""><tspan xml:space="preserve" dy="1em" x="0" class="row"></tspan></text></g></g><g class="edgeLabel" transform="translate(373.3515625, 364)"><g class="label" transform="translate(-28.0234375, -9)"><rect rx="0" ry="0" width="56.046875" height="18"></rect><text style=""><tspan xml:space="preserve" dy="1em" x="0" class="row">optional</tspan></text></g></g></g><g class="nodes"><g class="node default default flowchart-label" id="flowchart-Pre-0" data-node="true" data-id="Pre" transform="translate(252.16015625, 24.5)"><rect class="basic label-container" style="" rx="0" ry="0" x="-110.90625" y="-24.5" width="221.8125" height="49"></rect><g class="label" style="" transform="translate(0, -17)"><rect></rect><text style=""><tspan xml:space="preserve" dy="1em" x="0" class="row">Prerequisites</tspan><tspan xml:space="preserve" dy="1em" x="0" class="row">Claude Code · Node 18+ · git</tspan></text></g></g><g class="node default default flowchart-label" id="flowchart-Get-1" data-node="true" data-id="Get" transform="translate(252.16015625, 123.5)"><rect class="basic label-container" style="" rx="0" ry="0" x="-63.53125" y="-24.5" width="127.0625" height="49"></rect><g class="label" style="" transform="translate(0, -17)"><rect></rect><text style=""><tspan xml:space="preserve" dy="1em" x="0" class="row">1 · Get the kit</tspan><tspan xml:space="preserve" dy="1em" x="0" class="row">(clone the repo)</tspan></text></g></g><g class="node default default flowchart-label" id="flowchart-Open-3" data-node="true" data-id="Open" transform="translate(252.16015625, 214.5)"><rect class="basic label-container" style="" rx="0" ry="0" x="-101.78125" y="-16.5" width="203.5625" height="33"></rect><g class="label" style="" transform="translate(0, -9)"><rect></rect><text style=""><tspan xml:space="preserve" dy="1em" x="0" class="row">2 · Open it in Claude Code</tspan></text></g></g><g class="node default default flowchart-label" id="flowchart-Build-5" data-node="true" data-id="Build" transform="translate(252.16015625, 305.5)"><rect class="basic label-container" style="" rx="0" ry="0" x="-108.4375" y="-24.5" width="216.875" height="49"></rect><g class="label" style="" transform="translate(0, -17)"><rect></rect><text style=""><tspan xml:space="preserve" dy="1em" x="0" class="row">3 · First-run build</tspan><tspan xml:space="preserve" dy="1em" x="0" class="row">(generate local runtime files)</tspan></text></g></g><g class="node default default flowchart-label" id="flowchart-Setup-7" data-node="true" data-id="Setup" transform="translate(130.96875, 422.5)"><rect class="basic label-container" style="" rx="0" ry="0" x="-83.53125" y="-24.5" width="167.0625" height="49"></rect><g class="label" style="" transform="translate(0, -17)"><rect></rect><text style=""><tspan xml:space="preserve" dy="1em" x="0" class="row">4 · /mkt-setup</tspan><tspan xml:space="preserve" dy="1em" x="0" class="row">(configure your team)</tspan></text></g></g><g class="node default default flowchart-label" id="flowchart-Doctor-9" data-node="true" data-id="Doctor" transform="translate(130.96875, 521.5)"><rect class="basic label-container" style="" rx="0" ry="0" x="-61.75" y="-24.5" width="123.5" height="49"></rect><g class="label" style="" transform="translate(0, -17)"><rect></rect><text style=""><tspan xml:space="preserve" dy="1em" x="0" class="row">5 · /prep-doctor</tspan><tspan xml:space="preserve" dy="1em" x="0" class="row">(verify)</tspan></text></g></g><g class="node default default flowchart-label" id="flowchart-Ready-11" data-node="true" data-id="Ready" transform="translate(130.96875, 612.5)"><rect class="basic label-container" style="" rx="0" ry="0" x="-130.96875" y="-16.5" width="261.9375" height="33"></rect><g class="label" style="" transform="translate(0, -9)"><rect></rect><text style=""><tspan xml:space="preserve" dy="1em" x="0" class="row">Ready -- see the Team User Guide</tspan></text></g></g><g class="node default default flowchart-label" id="flowchart-Secrets-13" data-node="true" data-id="Secrets" transform="translate(373.3515625, 422.5)"><rect class="basic label-container" style="" rx="0" ry="0" x="-108.8515625" y="-16.5" width="217.703125" height="33"></rect><g class="label" style="" transform="translate(0, -9)"><rect></rect><text style=""><tspan xml:space="preserve" dy="1em" x="0" class="row">Secrets (.env) · Memory (uv)</tspan></text></g></g></g></g></g></svg>
