<?xml version="1.0" encoding="UTF-8"?>
<svg id="g" width="502.5859375" xmlns="http://www.w3.org/2000/svg" height="1222.578125" viewBox="-8 -8 502.5859375 1222.578125" role="graphics-document document" aria-roledescription="flowchart-v2"><style>#g{font-family:Helvetica,Arial,sans-serif;font-size:16px;fill:#333;}#g .error-icon{fill:#552222;}#g .error-text{fill:#552222;stroke:#552222;}#g .edge-thickness-normal{stroke-width:2px;}#g .edge-thickness-thick{stroke-width:3.5px;}#g .edge-pattern-solid{stroke-dasharray:0;}#g .edge-pattern-dashed{stroke-dasharray:3;}#g .edge-pattern-dotted{stroke-dasharray:2;}#g .marker{fill:#333333;stroke:#333333;}#g .marker.cross{stroke:#333333;}#g svg{font-family:Helvetica,Arial,sans-serif;font-size:16px;}#g .label{font-family:Helvetica,Arial,sans-serif;color:#333;}#g .cluster-label text{fill:#333;}#g .cluster-label span,#g p{color:#333;}#g .label text,#g span,#g p{fill:#333;color:#333;}#g .node rect,#g .node circle,#g .node ellipse,#g .node polygon,#g .node path{fill:#ECECFF;stroke:#9370DB;stroke-width:1px;}#g .flowchart-label text{text-anchor:middle;}#g .node .katex path{fill:#000;stroke:#000;stroke-width:1px;}#g .node .label{text-align:center;}#g .node.clickable{cursor:pointer;}#g .arrowheadPath{fill:#333333;}#g .edgePath .path{stroke:#333333;stroke-width:2.0px;}#g .flowchart-link{stroke:#333333;fill:none;}#g .edgeLabel{background-color:#e8e8e8;text-align:center;}#g .edgeLabel rect{opacity:0.5;background-color:#e8e8e8;fill:#e8e8e8;}#g .labelBkg{background-color:rgba(232, 232, 232, 0.5);}#g .cluster rect{fill:#ffffde;stroke:#aaaa33;stroke-width:1px;}#g .cluster text{fill:#333;}#g .cluster span,#g p{color:#333;}#g div.mermaidTooltip{position:absolute;text-align:center;max-width:200px;padding:2px;font-family:Helvetica,Arial,sans-serif;font-size:12px;background:hsl(80, 100%, 96.2745098039%);border:1px solid #aaaa33;border-radius:2px;pointer-events:none;z-index:100;}#g .flowchartTitleText{text-anchor:middle;font-size:18px;fill:#333;}#g :root{--mermaid-font-family:"trebuchet ms",verdana,arial,sans-serif;}</style><g><marker id="g_flowchart-pointEnd" class="marker flowchart" viewBox="0 0 10 10" refX="6" refY="5" markerUnits="userSpaceOnUse" markerWidth="12" markerHeight="12" orient="auto"><path d="M 0 0 L 10 5 L 0 10 z" class="arrowMarkerPath" style="stroke-width: 1; stroke-dasharray: 1, 0;"></path></marker><marker id="g_flowchart-pointStart" class="marker flowchart" viewBox="0 0 10 10" refX="4.5" refY="5" markerUnits="userSpaceOnUse" markerWidth="12" markerHeight="12" orient="auto"><path d="M 0 5 L 10 10 L 10 0 z" class="arrowMarkerPath" style="stroke-width: 1; stroke-dasharray: 1, 0;"></path></marker><marker id="g_flowchart-circleEnd" class="marker flowchart" viewBox="0 0 10 10" refX="11" refY="5" markerUnits="userSpaceOnUse" markerWidth="11" markerHeight="11" orient="auto"><circle cx="5" cy="5" r="5" class="arrowMarkerPath" style="stroke-width: 1; stroke-dasharray: 1, 0;"></circle></marker><marker id="g_flowchart-circleStart" class="marker flowchart" viewBox="0 0 10 10" refX="-1" refY="5" markerUnits="userSpaceOnUse" markerWidth="11" markerHeight="11" orient="auto"><circle cx="5" cy="5" r="5" class="arrowMarkerPath" style="stroke-width: 1; stroke-dasharray: 1, 0;"></circle></marker><marker id="g_flowchart-crossEnd" class="marker cross flowchart" viewBox="0 0 11 11" refX="12" refY="5.2" markerUnits="userSpaceOnUse" markerWidth="11" markerHeight="11" orient="auto"><path d="M 1,1 l 9,9 M 10,1 l -9,9" class="arrowMarkerPath" style="stroke-width: 2; stroke-dasharray: 1, 0;"></path></marker><marker id="g_flowchart-crossStart" class="marker cross flowchart" viewBox="0 0 11 11" refX="-1" refY="5.2" markerUnits="userSpaceOnUse" markerWidth="11" markerHeight="11" orient="auto"><path d="M 1,1 l 9,9 M 10,1 l -9,9" class="arrowMarkerPath" style="stroke-width: 2; stroke-dasharray: 1, 0;"></path></marker><g class="root"><g class="clusters"></g><g class="edgePaths"><path d="M186.293,33L186.293,37.167C186.293,41.333,186.293,49.667,186.359,57.2C186.425,64.734,186.557,71.467,186.623,74.834L186.689,78.201" id="L-Asset-C1-0" class=" edge-thickness-normal edge-pattern-solid flowchart-link LS-Asset LE-C1" style="fill:none;" marker-end="url(#g_flowchart-pointEnd)"></path><path d="M134.12,243.343L119.837,257.705C105.554,272.067,76.988,300.791,62.705,339.866C48.422,378.94,48.422,428.365,48.422,477.789C48.422,527.214,48.422,576.638,48.422,621.283C48.422,665.927,48.422,705.792,48.422,745.656C48.422,785.521,48.422,825.385,48.422,866.845C48.422,908.305,48.422,951.359,48.422,994.414C48.422,1037.469,48.422,1080.523,53.643,1107.103C58.864,1133.683,69.306,1143.788,74.527,1148.84L79.748,1153.892" id="L-C1-Draft-0" class=" edge-thickness-normal edge-pattern-solid flowchart-link LS-C1 LE-Draft" style="fill:none;" marker-end="url(#g_flowchart-pointEnd)"></path><path d="M223.698,259.11L229.903,270.845C236.109,282.579,248.519,306.047,254.795,322.648C261.071,339.249,261.212,348.983,261.282,353.849L261.353,358.716" id="L-C1-C2-0" class=" edge-thickness-normal edge-pattern-solid flowchart-link LS-C1 LE-C2" style="fill:none;" marker-end="url(#g_flowchart-pointEnd)"></path><path d="M209.672,540.805L197.755,555.014C185.839,569.224,162.005,597.643,150.089,631.785C138.172,665.927,138.172,705.792,138.172,745.656C138.172,785.521,138.172,825.385,138.172,866.845C138.172,908.305,138.172,951.359,138.172,994.414C138.172,1037.469,138.172,1080.523,135.73,1106.928C133.287,1133.332,128.403,1143.085,125.96,1147.962L123.518,1152.839" id="L-C2-Draft-0" class=" edge-thickness-normal edge-pattern-solid flowchart-link LS-C2 LE-Draft" style="fill:none;" marker-end="url(#g_flowchart-pointEnd)"></path><path d="M294.466,559.526L298.926,570.616C303.386,581.705,312.306,603.884,316.837,619.84C321.368,635.796,321.509,645.53,321.579,650.396L321.65,655.263" id="L-C2-C3-0" class=" edge-thickness-normal edge-pattern-solid flowchart-link LS-C2 LE-C3" style="fill:none;" marker-end="url(#g_flowchart-pointEnd)"></path><path d="M281.18,791.204L269.914,803.545C258.647,815.886,236.115,840.568,224.848,874.436C213.582,908.305,213.582,951.359,213.582,994.414C213.582,1037.469,213.582,1080.523,204.211,1107.287C194.839,1134.05,176.096,1144.521,166.725,1149.757L157.354,1154.993" id="L-C3-Draft-0" class=" edge-thickness-normal edge-pattern-solid flowchart-link LS-C3 LE-Draft" style="fill:none;" marker-end="url(#g_flowchart-pointEnd)"></path><path d="M353.384,800.092L359.724,810.952C366.063,821.812,378.743,843.531,385.153,859.257C391.563,874.984,391.704,884.717,391.775,889.584L391.845,894.451" id="L-C3-C4-0" class=" edge-thickness-normal edge-pattern-solid flowchart-link LS-C3 LE-C4" style="fill:none;" marker-end="url(#g_flowchart-pointEnd)"></path><path d="M352.202,1050.359L343.317,1062.562C334.432,1074.765,316.661,1099.172,290.214,1116.782C263.767,1134.392,228.643,1145.205,211.081,1150.612L193.52,1156.019" id="L-C4-Draft-0" class=" edge-thickness-normal edge-pattern-solid flowchart-link LS-C4 LE-Draft" style="fill:none;" marker-end="url(#g_flowchart-pointEnd)"></path><path d="M405.578,1076.422L406.825,1084.281C408.073,1092.141,410.568,1107.859,411.815,1121.835C413.063,1135.811,413.063,1148.045,413.063,1154.161L413.063,1160.278" id="L-C4-Pub-0" class=" edge-thickness-normal edge-pattern-solid flowchart-link LS-C4 LE-Pub" style="fill:none;" marker-end="url(#g_flowchart-pointEnd)"></path></g><g class="edgeLabels"><g class="edgeLabel"><g class="label" transform="translate(0, 0)"><rect rx="0" ry="0" width="0" height="0"></rect><text style=""><tspan xml:space="preserve" dy="1em" x="0" class="row"></tspan></text></g></g><g class="edgeLabel" transform="translate(48.421875, 745.65625)"><g class="label" transform="translate(-10.2265625, -9)"><rect rx="0" ry="0" width="20.45344352722168" height="18.000280380249023"></rect><text style=""><tspan xml:space="preserve" dy="1em" x="0" class="row">No</tspan></text></g></g><g class="edgeLabel" transform="translate(260.9296875, 329.515625)"><g class="label" transform="translate(-13.0546875, -9)"><rect rx="0" ry="0" width="26.094158172607422" height="18.000280380249023"></rect><text style=""><tspan xml:space="preserve" dy="1em" x="0" class="row">Yes</tspan></text></g></g><g class="edgeLabel" transform="translate(138.171875, 865.25)"><g class="label" transform="translate(-10.2265625, -9)"><rect rx="0" ry="0" width="20.45344352722168" height="18.000280380249023"></rect><text style=""><tspan xml:space="preserve" dy="1em" x="0" class="row">No</tspan></text></g></g><g class="edgeLabel" transform="translate(321.2265625, 626.0625)"><g class="label" transform="translate(-13.0546875, -9)"><rect rx="0" ry="0" width="26.094158172607422" height="18.000280380249023"></rect><text style=""><tspan xml:space="preserve" dy="1em" x="0" class="row">Yes</tspan></text></g></g><g class="edgeLabel" transform="translate(213.58203125, 994.4140625)"><g class="label" transform="translate(-10.2265625, -9)"><rect rx="0" ry="0" width="20.45344352722168" height="18.000280380249023"></rect><text style=""><tspan xml:space="preserve" dy="1em" x="0" class="row">No</tspan></text></g></g><g class="edgeLabel" transform="translate(391.421875, 865.25)"><g class="label" transform="translate(-13.0546875, -9)"><rect rx="0" ry="0" width="26.094158172607422" height="18.000280380249023"></rect><text style=""><tspan xml:space="preserve" dy="1em" x="0" class="row">Yes</tspan></text></g></g><g class="edgeLabel" transform="translate(298.890625, 1123.578125)"><g class="label" transform="translate(-10.2265625, -9)"><rect rx="0" ry="0" width="20.45344352722168" height="18.000280380249023"></rect><text style=""><tspan xml:space="preserve" dy="1em" x="0" class="row">No</tspan></text></g></g><g class="edgeLabel" transform="translate(413.0625, 1123.578125)"><g class="label" transform="translate(-13.0546875, -9)"><rect rx="0" ry="0" width="26.094158172607422" height="18.000280380249023"></rect><text style=""><tspan xml:space="preserve" dy="1em" x="0" class="row">Yes</tspan></text></g></g></g><g class="nodes"><g class="node default default flowchart-label" id="flowchart-Asset-0" data-node="true" data-id="Asset" transform="translate(186.29296875, 16.5)"><rect class="basic label-container" style="" rx="0" ry="0" x="-60.875" y="-16.5" width="121.75" height="33"></rect><g class="label" style="" transform="translate(0, -9)"><rect></rect><text style=""><tspan xml:space="preserve" dy="1em" x="0" class="row">A drafted asset</tspan></text></g></g><g class="node default default flowchart-label" id="flowchart-C1-1" data-node="true" data-id="C1" transform="translate(186.29296875, 189.2578125)"><polygon points="106.2578125,0 212.515625,-106.2578125 106.2578125,-212.515625 0,-106.2578125" class="label-container" transform="translate(-106.2578125,106.2578125)" style=""></polygon><g class="label" style="" transform="translate(0, -17)"><rect></rect><text style=""><tspan xml:space="preserve" dy="1em" x="0" class="row">Claims gate passes?</tspan><tspan xml:space="preserve" dy="1em" x="0" class="row">(publish mode)</tspan></text></g></g><g class="node default default flowchart-label" id="flowchart-Draft-3" data-node="true" data-id="Draft" transform="translate(108.875, 1182.078125)"><rect class="basic label-container" style="" rx="0" ry="0" x="-108.875" y="-24.5" width="217.75" height="49"></rect><g class="label" style="" transform="translate(0, -17)"><rect></rect><text style=""><tspan xml:space="preserve" dy="1em" x="0" class="row">DRAFT only --</tspan><tspan xml:space="preserve" dy="1em" x="0" class="row">lists which claims to approve</tspan></text></g></g><g class="node default default flowchart-label" id="flowchart-C2-5" data-node="true" data-id="C2" transform="translate(260.9296875, 477.7890625)"><polygon points="114.2734375,0 228.546875,-114.2734375 114.2734375,-228.546875 0,-114.2734375" class="label-container" transform="translate(-114.2734375,114.2734375)" style=""></polygon><g class="label" style="" transform="translate(0, -17)"><rect></rect><text style=""><tspan xml:space="preserve" dy="1em" x="0" class="row">Claims-judge: wording</tspan><tspan xml:space="preserve" dy="1em" x="0" class="row">matches the evidence?</tspan></text></g></g><g class="node default default flowchart-label" id="flowchart-C3-9" data-node="true" data-id="C3" transform="translate(321.2265625, 745.65625)"><polygon points="85.59375,0 171.1875,-85.59375 85.59375,-171.1875 0,-85.59375" class="label-container" transform="translate(-85.59375,85.59375)" style=""></polygon><g class="label" style="" transform="translate(0, -17)"><rect></rect><text style=""><tspan xml:space="preserve" dy="1em" x="0" class="row">Brand + quality</tspan><tspan xml:space="preserve" dy="1em" x="0" class="row">review clean?</tspan></text></g></g><g class="node default default flowchart-label" id="flowchart-C4-13" data-node="true" data-id="C4" transform="translate(391.421875, 994.4140625)"><polygon points="95.1640625,0 190.328125,-95.1640625 95.1640625,-190.328125 0,-95.1640625" class="label-container" transform="translate(-95.1640625,95.1640625)" style=""></polygon><g class="label" style="" transform="translate(0, -9)"><rect></rect><text style=""><tspan xml:space="preserve" dy="1em" x="0" class="row">A human approves?</tspan></text></g></g><g class="node default default flowchart-label" id="flowchart-Pub-17" data-node="true" data-id="Pub" transform="translate(413.0625, 1182.078125)"><rect class="basic label-container" style="" rx="0" ry="0" x="-56.4140625" y="-16.5" width="112.828125" height="33"></rect><g class="label" style="" transform="translate(0, -9)"><rect></rect><text style=""><tspan xml:space="preserve" dy="1em" x="0" class="row">Publish-ready</tspan></text></g></g></g></g></g></svg>
