<?xml version="1.0" encoding="UTF-8"?>
<svg id="g" width="444.796875" xmlns="http://www.w3.org/2000/svg" height="1003.890625" viewBox="-8 -8 444.796875 1003.890625" role="graphics-document document" aria-roledescription="flowchart-v2"><style>#g{font-family:Helvetica,Arial,sans-serif;font-size:16px;fill:#333;}#g .error-icon{fill:#552222;}#g .error-text{fill:#552222;stroke:#552222;}#g .edge-thickness-normal{stroke-width:2px;}#g .edge-thickness-thick{stroke-width:3.5px;}#g .edge-pattern-solid{stroke-dasharray:0;}#g .edge-pattern-dashed{stroke-dasharray:3;}#g .edge-pattern-dotted{stroke-dasharray:2;}#g .marker{fill:#333333;stroke:#333333;}#g .marker.cross{stroke:#333333;}#g svg{font-family:Helvetica,Arial,sans-serif;font-size:16px;}#g .label{font-family:Helvetica,Arial,sans-serif;color:#333;}#g .cluster-label text{fill:#333;}#g .cluster-label span,#g p{color:#333;}#g .label text,#g span,#g p{fill:#333;color:#333;}#g .node rect,#g .node circle,#g .node ellipse,#g .node polygon,#g .node path{fill:#ECECFF;stroke:#9370DB;stroke-width:1px;}#g .flowchart-label text{text-anchor:middle;}#g .node .katex path{fill:#000;stroke:#000;stroke-width:1px;}#g .node .label{text-align:center;}#g .node.clickable{cursor:pointer;}#g .arrowheadPath{fill:#333333;}#g .edgePath .path{stroke:#333333;stroke-width:2.0px;}#g .flowchart-link{stroke:#333333;fill:none;}#g .edgeLabel{background-color:#e8e8e8;text-align:center;}#g .edgeLabel rect{opacity:0.5;background-color:#e8e8e8;fill:#e8e8e8;}#g .labelBkg{background-color:rgba(232, 232, 232, 0.5);}#g .cluster rect{fill:#ffffde;stroke:#aaaa33;stroke-width:1px;}#g .cluster text{fill:#333;}#g .cluster span,#g p{color:#333;}#g div.mermaidTooltip{position:absolute;text-align:center;max-width:200px;padding:2px;font-family:Helvetica,Arial,sans-serif;font-size:12px;background:hsl(80, 100%, 96.2745098039%);border:1px solid #aaaa33;border-radius:2px;pointer-events:none;z-index:100;}#g .flowchartTitleText{text-anchor:middle;font-size:18px;fill:#333;}#g :root{--mermaid-font-family:"trebuchet ms",verdana,arial,sans-serif;}</style><g><marker id="g_flowchart-pointEnd" class="marker flowchart" viewBox="0 0 10 10" refX="6" refY="5" markerUnits="userSpaceOnUse" markerWidth="12" markerHeight="12" orient="auto"><path d="M 0 0 L 10 5 L 0 10 z" class="arrowMarkerPath" style="stroke-width: 1; stroke-dasharray: 1, 0;"></path></marker><marker id="g_flowchart-pointStart" class="marker flowchart" viewBox="0 0 10 10" refX="4.5" refY="5" markerUnits="userSpaceOnUse" markerWidth="12" markerHeight="12" orient="auto"><path d="M 0 5 L 10 10 L 10 0 z" class="arrowMarkerPath" style="stroke-width: 1; stroke-dasharray: 1, 0;"></path></marker><marker id="g_flowchart-circleEnd" class="marker flowchart" viewBox="0 0 10 10" refX="11" refY="5" markerUnits="userSpaceOnUse" markerWidth="11" markerHeight="11" orient="auto"><circle cx="5" cy="5" r="5" class="arrowMarkerPath" style="stroke-width: 1; stroke-dasharray: 1, 0;"></circle></marker><marker id="g_flowchart-circleStart" class="marker flowchart" viewBox="0 0 10 10" refX="-1" refY="5" markerUnits="userSpaceOnUse" markerWidth="11" markerHeight="11" orient="auto"><circle cx="5" cy="5" r="5" class="arrowMarkerPath" style="stroke-width: 1; stroke-dasharray: 1, 0;"></circle></marker><marker id="g_flowchart-crossEnd" class="marker cross flowchart" viewBox="0 0 11 11" refX="12" refY="5.2" markerUnits="userSpaceOnUse" markerWidth="11" markerHeight="11" orient="auto"><path d="M 1,1 l 9,9 M 10,1 l -9,9" class="arrowMarkerPath" style="stroke-width: 2; stroke-dasharray: 1, 0;"></path></marker><marker id="g_flowchart-crossStart" class="marker cross flowchart" viewBox="0 0 11 11" refX="-1" refY="5.2" markerUnits="userSpaceOnUse" markerWidth="11" markerHeight="11" orient="auto"><path d="M 1,1 l 9,9 M 10,1 l -9,9" class="arrowMarkerPath" style="stroke-width: 2; stroke-dasharray: 1, 0;"></path></marker><g class="root"><g class="clusters"></g><g class="edgePaths"><path d="M205.957,33L205.957,37.167C205.957,41.333,205.957,49.667,205.957,57.117C205.957,64.567,205.957,71.133,205.957,74.417L205.957,77.7" id="L-You-Front-0" class=" edge-thickness-normal edge-pattern-solid flowchart-link LS-You LE-Front" style="fill:none;" marker-end="url(#g_flowchart-pointEnd)"></path><path d="M205.957,116L205.957,120.167C205.957,124.333,205.957,132.667,205.957,140.117C205.957,147.567,205.957,154.133,205.957,157.417L205.957,160.7" id="L-Front-Route-0" class=" edge-thickness-normal edge-pattern-solid flowchart-link LS-Front LE-Route" style="fill:none;" marker-end="url(#g_flowchart-pointEnd)"></path><path d="M205.957,215L205.957,219.167C205.957,223.333,205.957,231.667,205.957,239.117C205.957,246.567,205.957,253.133,205.957,256.417L205.957,259.7" id="L-Route-Ground-0" class=" edge-thickness-normal edge-pattern-solid flowchart-link LS-Route LE-Ground" style="fill:none;" marker-end="url(#g_flowchart-pointEnd)"></path><path d="M205.957,314L205.957,318.167C205.957,322.333,205.957,330.667,205.957,338.117C205.957,345.567,205.957,352.133,205.957,355.417L205.957,358.7" id="L-Ground-Draft-0" class=" edge-thickness-normal edge-pattern-solid flowchart-link LS-Ground LE-Draft" style="fill:none;" marker-end="url(#g_flowchart-pointEnd)"></path><path d="M205.957,397L205.957,401.167C205.957,405.333,205.957,413.667,205.957,421.117C205.957,428.567,205.957,435.133,205.957,438.417L205.957,441.7" id="L-Draft-Review-0" class=" edge-thickness-normal edge-pattern-solid flowchart-link LS-Draft LE-Review" style="fill:none;" marker-end="url(#g_flowchart-pointEnd)"></path><path d="M205.957,480L205.957,484.167C205.957,488.333,205.957,496.667,206.023,504.2C206.089,511.734,206.221,518.467,206.287,521.834L206.353,525.201" id="L-Review-Gate-0" class=" edge-thickness-normal edge-pattern-solid flowchart-link LS-Review LE-Gate" style="fill:none;" marker-end="url(#g_flowchart-pointEnd)"></path><path d="M154.503,736.436L144.752,750.679C135.002,764.921,115.501,793.406,105.75,812.432C96,831.457,96,841.024,96,845.807L96,850.591" id="L-Gate-DraftOut-0" class=" edge-thickness-normal edge-pattern-solid flowchart-link LS-Gate LE-DraftOut" style="fill:none;" marker-end="url(#g_flowchart-pointEnd)"></path><path d="M258.411,736.436L267.995,750.679C277.579,764.921,296.746,793.406,306.33,813.765C315.914,834.124,315.914,846.357,315.914,852.474L315.914,858.591" id="L-Gate-Approve-0" class=" edge-thickness-normal edge-pattern-solid flowchart-link LS-Gate LE-Approve" style="fill:none;" marker-end="url(#g_flowchart-pointEnd)"></path><path d="M315.914,896.891L315.914,902.391C315.914,907.891,315.914,918.891,315.914,927.674C315.914,936.457,315.914,943.024,315.914,946.307L315.914,949.591" id="L-Approve-Publish-0" class=" edge-thickness-normal edge-pattern-solid flowchart-link LS-Approve LE-Publish" style="fill:none;" marker-end="url(#g_flowchart-pointEnd)"></path></g><g class="edgeLabels"><g class="edgeLabel"><g class="label" transform="translate(0, 0)"><rect rx="0" ry="0" width="0" height="0"></rect><text style=""><tspan xml:space="preserve" dy="1em" x="0" class="row"></tspan></text></g></g><g class="edgeLabel"><g class="label" transform="translate(0, 0)"><rect rx="0" ry="0" width="0" height="0"></rect><text style=""><tspan xml:space="preserve" dy="1em" x="0" class="row"></tspan></text></g></g><g class="edgeLabel"><g class="label" transform="translate(0, 0)"><rect rx="0" ry="0" width="0" height="0"></rect><text style=""><tspan xml:space="preserve" dy="1em" x="0" class="row"></tspan></text></g></g><g class="edgeLabel"><g class="label" transform="translate(0, 0)"><rect rx="0" ry="0" width="0" height="0"></rect><text style=""><tspan xml:space="preserve" dy="1em" x="0" class="row"></tspan></text></g></g><g class="edgeLabel"><g class="label" transform="translate(0, 0)"><rect rx="0" ry="0" width="0" height="0"></rect><text style=""><tspan xml:space="preserve" dy="1em" x="0" class="row"></tspan></text></g></g><g class="edgeLabel"><g class="label" transform="translate(0, 0)"><rect rx="0" ry="0" width="0" height="0"></rect><text style=""><tspan xml:space="preserve" dy="1em" x="0" class="row"></tspan></text></g></g><g class="edgeLabel" transform="translate(96, 821.890625)"><g class="label" transform="translate(-10.2265625, -9)"><rect rx="0" ry="0" width="20.453125" height="18"></rect><text style=""><tspan xml:space="preserve" dy="1em" x="0" class="row">No</tspan></text></g></g><g class="edgeLabel" transform="translate(315.9140625, 821.890625)"><g class="label" transform="translate(-13.0546875, -9)"><rect rx="0" ry="0" width="26.109375" height="18"></rect><text style=""><tspan xml:space="preserve" dy="1em" x="0" class="row">Yes</tspan></text></g></g><g class="edgeLabel"><g class="label" transform="translate(0, 0)"><rect rx="0" ry="0" width="0" height="0"></rect><text style=""><tspan xml:space="preserve" dy="1em" x="0" class="row"></tspan></text></g></g></g><g class="nodes"><g class="node default default flowchart-label" id="flowchart-You-0" data-node="true" data-id="You" transform="translate(205.95703125, 16.5)"><rect class="basic label-container" style="" rx="0" ry="0" x="-118.84375" y="-16.5" width="237.6875" height="33"></rect><g class="label" style="" transform="translate(0, -9)"><rect></rect><text style=""><tspan xml:space="preserve" dy="1em" x="0" class="row">You -- a plain-language request</tspan></text></g></g><g class="node default default flowchart-label" id="flowchart-Front-1" data-node="true" data-id="Front" transform="translate(205.95703125, 99.5)"><rect class="basic label-container" style="" rx="0" ry="0" x="-79.96875" y="-16.5" width="159.9375" height="33"></rect><g class="label" style="" transform="translate(0, -9)"><rect></rect><text style=""><tspan xml:space="preserve" dy="1em" x="0" class="row">/mkt -- the front door</tspan></text></g></g><g class="node default default flowchart-label" id="flowchart-Route-3" data-node="true" data-id="Route" transform="translate(205.95703125, 190.5)"><rect class="basic label-container" style="" rx="0" ry="0" x="-127.3359375" y="-24.5" width="254.671875" height="49"></rect><g class="label" style="" transform="translate(0, -17)"><rect></rect><text style=""><tspan xml:space="preserve" dy="1em" x="0" class="row">marketing-facilitation</tspan><tspan xml:space="preserve" dy="1em" x="0" class="row">routes to the right skill + specialist</tspan></text></g></g><g class="node default default flowchart-label" id="flowchart-Ground-5" data-node="true" data-id="Ground" transform="translate(205.95703125, 289.5)"><rect class="basic label-container" style="" rx="0" ry="0" x="-118.671875" y="-24.5" width="237.34375" height="49"></rect><g class="label" style="" transform="translate(0, -17)"><rect></rect><text style=""><tspan xml:space="preserve" dy="1em" x="0" class="row">Reads your context/</tspan><tspan xml:space="preserve" dy="1em" x="0" class="row">brand voice, positioning, claims</tspan></text></g></g><g class="node default default flowchart-label" id="flowchart-Draft-7" data-node="true" data-id="Draft" transform="translate(205.95703125, 380.5)"><rect class="basic label-container" style="" rx="0" ry="0" x="-118.671875" y="-16.5" width="237.34375" height="33"></rect><g class="label" style="" transform="translate(0, -9)"><rect></rect><text style=""><tspan xml:space="preserve" dy="1em" x="0" class="row">Specialist agents draft the work</tspan></text></g></g><g class="node default default flowchart-label" id="flowchart-Review-9" data-node="true" data-id="Review" transform="translate(205.95703125, 463.5)"><rect class="basic label-container" style="" rx="0" ry="0" x="-85.9765625" y="-16.5" width="171.953125" height="33"></rect><g class="label" style="" transform="translate(0, -9)"><rect></rect><text style=""><tspan xml:space="preserve" dy="1em" x="0" class="row">Brand + claims review</tspan></text></g></g><g class="node default default flowchart-label" id="flowchart-Gate-11" data-node="true" data-id="Gate" transform="translate(205.95703125, 658.9453125)"><polygon points="128.9453125,0 257.890625,-128.9453125 128.9453125,-257.890625 0,-128.9453125" class="label-container" transform="translate(-128.9453125,128.9453125)" style=""></polygon><g class="label" style="" transform="translate(0, -17)"><rect></rect><text style=""><tspan xml:space="preserve" dy="1em" x="0" class="row">Claims gate --</tspan><tspan xml:space="preserve" dy="1em" x="0" class="row">is every number approved?</tspan></text></g></g><g class="node default default flowchart-label" id="flowchart-DraftOut-13" data-node="true" data-id="DraftOut" transform="translate(96, 880.390625)"><rect class="basic label-container" style="" rx="0" ry="0" x="-96" y="-24.5" width="192" height="49"></rect><g class="label" style="" transform="translate(0, -17)"><rect></rect><text style=""><tspan xml:space="preserve" dy="1em" x="0" class="row">Stays a DRAFT</tspan><tspan xml:space="preserve" dy="1em" x="0" class="row">tells you what to approve</tspan></text></g></g><g class="node default default flowchart-label" id="flowchart-Approve-15" data-node="true" data-id="Approve" transform="translate(315.9140625, 880.390625)"><rect class="basic label-container" style="" rx="0" ry="0" x="-73.9140625" y="-16.5" width="147.828125" height="33"></rect><g class="label" style="" transform="translate(0, -9)"><rect></rect><text style=""><tspan xml:space="preserve" dy="1em" x="0" class="row">You approve (lock)</tspan></text></g></g><g class="node default default flowchart-label" id="flowchart-Publish-17" data-node="true" data-id="Publish" transform="translate(315.9140625, 971.390625)"><rect class="basic label-container" style="" rx="0" ry="0" x="-112.8828125" y="-16.5" width="225.765625" height="33"></rect><g class="label" style="" transform="translate(0, -9)"><rect></rect><text style=""><tspan xml:space="preserve" dy="1em" x="0" class="row">Publish-ready -- saved to files</tspan></text></g></g></g></g></g></svg>
